<?xml version="1.0" encoding="UTF-8" standalone="no"?>
<svg
   xmlns:dc="http://purl.org/dc/elements/1.1/"
   xmlns:cc="http://creativecommons.org/ns#"
   xmlns:rdf="http://www.w3.org/1999/02/22-rdf-syntax-ns#"
   xmlns:svg="http://www.w3.org/2000/svg"
   xmlns="http://www.w3.org/2000/svg"
   viewBox="0 0 601.33331 458.66666"
   height="458.66666"
   width="601.33331"
   xml:space="preserve"
   id="svg2"
   version="1.1"><metadata
     id="metadata8"><rdf:RDF><cc:Work
         rdf:about=""><dc:format>image/svg+xml</dc:format><dc:type
           rdf:resource="http://purl.org/dc/dcmitype/StillImage" /></cc:Work></rdf:RDF></metadata><defs
     id="defs6"><clipPath
       id="clipPath18"
       clipPathUnits="userSpaceOnUse"><path
         id="path16"
         d="M 0,344 H 451 V 0 H 0 Z" /></clipPath><clipPath
       id="clipPath38"
       clipPathUnits="userSpaceOnUse"><path
         id="path36"
         d="M 0,344 H 451 V 0 H 0 Z" /></clipPath></defs><g
     transform="matrix(1.3333333,0,0,-1.3333333,0,458.66667)"
     id="g10"><g
       id="g12"><g
         clip-path="url(#clipPath18)"
         id="g14"><g
           transform="translate(373.1667,172)"
           id="g20"><path
             id="path22"
             style="fill:#45a8c6;fill-opacity:1;fill-rule:nonzero;stroke:none"
             d="m 0,0 c 0,-82.106 -66.56,-148.667 -148.667,-148.667 -82.106,0 -148.666,66.561 -148.666,148.667 0,82.106 66.56,148.667 148.666,148.667 C -66.56,148.667 0,82.106 0,0" /></g><g
           transform="translate(160.0519,162.8064)"
           id="g24"><path
             id="path26"
             style="fill:#ffffff;fill-opacity:1;fill-rule:nonzero;stroke:none"
             d="m 0,0 c -0.017,0.019 -2.213,2.159 -2.452,8.698 -0.202,5.527 4.364,9.89 4.363,9.89 l 62.218,62.218 c 5.774,5.774 5.774,15.169 0,20.944 -5.774,5.774 -15.169,5.774 -20.943,0 l -82.94,-82.94 c -2.789,-2.789 -4.325,-6.507 -4.325,-10.471 0,-3.964 1.536,-7.683 4.325,-10.472 l 82.94,-82.94 c 2.887,-2.886 6.679,-4.33 10.471,-4.33 3.793,0 7.585,1.444 10.472,4.331 5.774,5.774 5.774,15.169 0,20.943 z" /></g><g
           transform="translate(315.3162,205.0837)"
           id="g28"><path
             id="path30"
             style="fill:#ffffff;fill-opacity:1;fill-rule:nonzero;stroke:none"
             d="m 0,0 c -5.775,5.774 -15.17,5.775 -20.944,0 l -51.728,-51.728 -9.45,9.451 c -0.018,0.019 -2.213,2.159 -2.452,8.698 -0.203,5.526 4.364,9.89 4.363,9.89 l 62.218,62.218 c 5.774,5.774 5.774,15.169 0,20.943 -5.775,5.774 -15.17,5.775 -20.944,0 l -82.939,-82.939 c -2.789,-2.789 -4.325,-6.508 -4.325,-10.472 0,-3.964 1.536,-7.683 4.325,-10.471 l 82.939,-82.94 c 2.887,-2.887 6.679,-4.33 10.472,-4.33 3.792,0 7.585,1.443 10.472,4.33 5.774,5.774 5.774,15.17 0,20.944 L -51.728,-72.672 0,-20.944 C 5.774,-15.17 5.774,-5.775 0,0" /></g></g></g><g
       id="g32"><g
         clip-path="url(#clipPath38)"
         id="g34"><g
           transform="translate(315.3162,184.1401)"
           id="g40"><path
             id="path42"
             style="fill:#45a8c6;fill-opacity:1;fill-rule:nonzero;stroke:none"
             d="m 0,0 -51.728,-51.728 33.735,-33.735 c 5.774,-5.774 5.774,-15.169 0,-20.943 -2.887,-2.887 -6.68,-4.331 -10.472,-4.331 -3.793,0 -7.585,1.444 -10.472,4.33 l -82.939,82.941 c -2.789,2.788 -4.325,6.507 -4.325,10.471 0,3.964 1.536,7.683 4.325,10.472 l 82.939,82.939 c 5.774,5.775 15.169,5.774 20.944,0 5.774,-5.775 5.774,-15.17 0,-20.944 L -80.211,-2.746 c 0.001,0 -4.566,-4.363 -4.363,-9.89 0.239,-6.539 2.434,-8.679 2.452,-8.698 l 9.45,-9.45 51.728,51.728 c 5.774,5.774 15.169,5.774 20.944,0 C 5.774,15.169 5.774,5.774 0,0 m -91.135,-106.406 c -2.887,-2.887 -6.68,-4.331 -10.472,-4.331 -3.792,0 -7.585,1.444 -10.472,4.33 l -82.939,82.941 c -2.789,2.788 -4.325,6.507 -4.325,10.471 0,3.964 1.536,7.683 4.325,10.472 l 82.939,82.939 c 5.774,5.775 15.169,5.774 20.944,0 5.774,-5.775 5.774,-15.17 0,-20.944 l -62.218,-62.218 c 0.001,0 -4.565,-4.363 -4.363,-9.89 0.239,-6.539 2.434,-8.679 2.452,-8.698 l 64.129,-64.129 c 5.774,-5.774 5.774,-15.169 0,-20.943 m 0.319,242.933 c -82.107,0 -148.667,-66.561 -148.667,-148.667 0,-82.106 66.56,-148.667 148.667,-148.667 82.106,0 148.666,66.561 148.666,148.667 0,82.106 -66.56,148.667 -148.666,148.667" /></g></g></g></g></svg>